# xmcd CD database file
#
# Track frame offsets:
#	187
#	26097
#	48145
#	74027
#
# Disc length: 1279 seconds
#
# Revision: 0
# Processed by: cddbd v1.5.1PL0 Copyright (c) Steve Scherf et al.
# Submitted via: CDex 1.51
#
DISCID=3304fd04
DTITLE=ANN LEWIS - 恋を眠らせて
DYEAR=1996
DGENRE=Vocal
TTITLE0=恋を眠らせて
TTITLE1=MOON
TTITLE2=恋を眠らせて（オリジナル・カラオケ）
TTITLE3=MOON（オリジナル・カラオケ）
EXTD=YEAR: 1996
EXTT0=
EXTT1=
EXTT2=
EXTT3=
PLAYORDER=
